<?xml version="1.0" standalone="no"?>
<!DOCTYPE svg PUBLIC "-//W3C//DTD SVG 20010904//EN"
 "http://www.w3.org/TR/2001/REC-SVG-20010904/DTD/svg10.dtd">
<svg version="1.0" xmlns="http://www.w3.org/2000/svg"
 width="220.000000pt" height="220.000000pt" viewBox="0 0 220.000000 220.000000"
 preserveAspectRatio="xMidYMid meet">
<metadata>
Created by potrace 1.11, written by Peter Selinger 2001-2013
</metadata>
<g transform="translate(0.000000,220.000000) scale(0.100000,-0.100000)"
fill="#000000" stroke="none">
<path d="M995 2193 c-23 -3 -107 -19 -145 -28 -3 -1 -21 -5 -40 -9 -19 -5 -39
-12 -45 -16 -5 -4 -35 -15 -65 -25 -75 -24 -211 -101 -266 -152 -14 -13 -29
-23 -33 -23 -13 0 -141 -134 -141 -147 0 -7 -4 -13 -8 -13 -8 0 -82 -95 -82
-105 0 -2 -14 -27 -31 -55 -40 -65 -104 -253 -122 -361 -14 -81 -16 -265 -3
-319 3 -14 10 -48 15 -75 5 -28 19 -75 31 -105 12 -30 28 -74 35 -97 7 -23 22
-54 34 -69 11 -15 21 -31 21 -37 0 -9 66 -110 94 -144 35 -43 156 -163 165
-163 5 0 14 -6 18 -14 7 -11 76 -59 148 -103 67 -40 263 -108 355 -122 98 -16
280 -13 368 5 42 9 82 17 87 18 6 1 24 7 40 13 17 6 57 21 90 33 79 30 265
140 265 157 0 7 6 13 13 13 26 0 163 145 222 235 37 55 94 163 101 190 2 6 17
48 33 95 16 47 34 108 38 135 9 54 9 332 0 380 -18 102 -74 257 -122 337 -19
33 -35 62 -35 64 0 9 -54 79 -67 87 -7 4 -13 12 -13 18 0 5 -31 40 -68 77 -74
72 -88 84 -142 122 -19 13 -38 29 -42 35 -4 5 -8 6 -8 2 0 -4 -24 8 -53 26
-45 29 -203 95 -241 101 -6 1 -15 4 -21 8 -5 3 -30 9 -55 13 -25 4 -54 9 -65
12 -25 6 -220 10 -260 6z"/>
</g>
</svg>
